<mxfile host="Electron" modified="2023-10-18T09:22:18.545Z" agent="Mozilla/5.0 (Windows NT 10.0; Win64; x64) AppleWebKit/537.36 (KHTML, like Gecko) draw.io/22.0.2 Chrome/114.0.5735.289 Electron/25.8.4 Safari/537.36" etag="9Z__fRYotREwF8_lpOh_" version="22.0.2" type="device">
  <diagram name="Page-1" id="tczN10bxYS6plPf0AUv2">
    <mxGraphModel dx="1366" dy="899" grid="1" gridSize="10" guides="1" tooltips="1" connect="1" arrows="1" fold="1" page="1" pageScale="1" pageWidth="2000" pageHeight="1169" math="0" shadow="0">
      <root>
        <mxCell id="0" />
        <mxCell id="1" parent="0" />
        <mxCell id="NFq08yg4SE_zjbonH55o-2" value="&lt;h2&gt;h2z4x3_Fesztival&lt;/h2&gt;" style="ellipse;whiteSpace=wrap;html=1;" vertex="1" parent="1">
          <mxGeometry x="380" y="160" width="130" height="70" as="geometry" />
        </mxCell>
        <mxCell id="NFq08yg4SE_zjbonH55o-7" value="Résztvevő" style="ellipse;shape=doubleEllipse;margin=3;whiteSpace=wrap;html=1;align=center;" vertex="1" parent="1">
          <mxGeometry x="350" y="290" width="120" height="45" as="geometry" />
        </mxCell>
        <mxCell id="NFq08yg4SE_zjbonH55o-8" value="Fellepő" style="ellipse;shape=doubleEllipse;margin=3;whiteSpace=wrap;html=1;align=center;" vertex="1" parent="1">
          <mxGeometry x="90" y="270" width="120" height="45" as="geometry" />
        </mxCell>
        <mxCell id="NFq08yg4SE_zjbonH55o-13" value="" style="endArrow=none;html=1;rounded=0;exitX=1;exitY=0;exitDx=0;exitDy=0;entryX=0.025;entryY=0.659;entryDx=0;entryDy=0;entryPerimeter=0;" edge="1" parent="1" source="NFq08yg4SE_zjbonH55o-8" target="NFq08yg4SE_zjbonH55o-2">
          <mxGeometry width="50" height="50" relative="1" as="geometry">
            <mxPoint x="400" y="390" as="sourcePoint" />
            <mxPoint x="450" y="340" as="targetPoint" />
            <Array as="points" />
          </mxGeometry>
        </mxCell>
        <mxCell id="NFq08yg4SE_zjbonH55o-14" value="FEL iD." style="rhombus;whiteSpace=wrap;html=1;rotation=0;" vertex="1" parent="1">
          <mxGeometry x="62.76" y="350.95" width="70" height="60" as="geometry" />
        </mxCell>
        <mxCell id="NFq08yg4SE_zjbonH55o-16" value="" style="endArrow=none;html=1;rounded=0;entryX=0.208;entryY=0.865;entryDx=0;entryDy=0;entryPerimeter=0;exitX=0.5;exitY=0;exitDx=0;exitDy=0;" edge="1" parent="1" source="NFq08yg4SE_zjbonH55o-14" target="NFq08yg4SE_zjbonH55o-8">
          <mxGeometry width="50" height="50" relative="1" as="geometry">
            <mxPoint x="220" y="400" as="sourcePoint" />
            <mxPoint x="270" y="350" as="targetPoint" />
          </mxGeometry>
        </mxCell>
        <mxCell id="NFq08yg4SE_zjbonH55o-17" value="FEL iD." style="rhombus;whiteSpace=wrap;html=1;rotation=0;" vertex="1" parent="1">
          <mxGeometry x="280" y="350.95" width="70" height="60" as="geometry" />
        </mxCell>
        <mxCell id="NFq08yg4SE_zjbonH55o-18" value="név" style="ellipse;whiteSpace=wrap;html=1;" vertex="1" parent="1">
          <mxGeometry x="300" y="500" width="90" height="50" as="geometry" />
        </mxCell>
        <mxCell id="NFq08yg4SE_zjbonH55o-19" value="dij" style="ellipse;whiteSpace=wrap;html=1;" vertex="1" parent="1">
          <mxGeometry x="70" y="500" width="90" height="50" as="geometry" />
        </mxCell>
        <mxCell id="NFq08yg4SE_zjbonH55o-24" value="ország" style="ellipse;whiteSpace=wrap;html=1;" vertex="1" parent="1">
          <mxGeometry x="180" y="510" width="90" height="50" as="geometry" />
        </mxCell>
        <mxCell id="NFq08yg4SE_zjbonH55o-25" value="" style="endArrow=none;html=1;rounded=0;exitX=0.403;exitY=0.02;exitDx=0;exitDy=0;exitPerimeter=0;" edge="1" parent="1" source="NFq08yg4SE_zjbonH55o-18" target="NFq08yg4SE_zjbonH55o-8">
          <mxGeometry width="50" height="50" relative="1" as="geometry">
            <mxPoint x="210" y="380" as="sourcePoint" />
            <mxPoint x="270" y="350" as="targetPoint" />
          </mxGeometry>
        </mxCell>
        <mxCell id="NFq08yg4SE_zjbonH55o-26" value="Fesztival" style="ellipse;shape=doubleEllipse;margin=3;whiteSpace=wrap;html=1;align=center;" vertex="1" parent="1">
          <mxGeometry x="557.24" y="290" width="120" height="45" as="geometry" />
        </mxCell>
        <mxCell id="NFq08yg4SE_zjbonH55o-27" value="FEL iD." style="rhombus;whiteSpace=wrap;html=1;rotation=0;" vertex="1" parent="1">
          <mxGeometry x="420" y="400" width="70" height="60" as="geometry" />
        </mxCell>
        <mxCell id="NFq08yg4SE_zjbonH55o-28" value="" style="endArrow=none;html=1;rounded=0;entryX=0.208;entryY=0.865;entryDx=0;entryDy=0;entryPerimeter=0;exitX=0.5;exitY=0;exitDx=0;exitDy=0;" edge="1" parent="1" source="NFq08yg4SE_zjbonH55o-27" target="NFq08yg4SE_zjbonH55o-26">
          <mxGeometry width="50" height="50" relative="1" as="geometry">
            <mxPoint x="687.24" y="420" as="sourcePoint" />
            <mxPoint x="737.24" y="370" as="targetPoint" />
          </mxGeometry>
        </mxCell>
        <mxCell id="NFq08yg4SE_zjbonH55o-29" value="név" style="ellipse;whiteSpace=wrap;html=1;" vertex="1" parent="1">
          <mxGeometry x="780" y="380.95" width="90" height="50" as="geometry" />
        </mxCell>
        <mxCell id="NFq08yg4SE_zjbonH55o-30" value="dij" style="ellipse;whiteSpace=wrap;html=1;" vertex="1" parent="1">
          <mxGeometry x="540" y="380.95" width="90" height="50" as="geometry" />
        </mxCell>
        <mxCell id="NFq08yg4SE_zjbonH55o-31" value="ország" style="ellipse;whiteSpace=wrap;html=1;" vertex="1" parent="1">
          <mxGeometry x="660" y="380.95" width="90" height="50" as="geometry" />
        </mxCell>
        <mxCell id="NFq08yg4SE_zjbonH55o-32" value="" style="endArrow=none;html=1;rounded=0;exitX=0.403;exitY=0.02;exitDx=0;exitDy=0;exitPerimeter=0;" edge="1" parent="1" source="NFq08yg4SE_zjbonH55o-29" target="NFq08yg4SE_zjbonH55o-26">
          <mxGeometry width="50" height="50" relative="1" as="geometry">
            <mxPoint x="677.24" y="400" as="sourcePoint" />
            <mxPoint x="737.24" y="370" as="targetPoint" />
          </mxGeometry>
        </mxCell>
        <mxCell id="NFq08yg4SE_zjbonH55o-35" value="" style="rounded=0;whiteSpace=wrap;html=1;" vertex="1" parent="1">
          <mxGeometry x="170" y="600" width="40" height="65" as="geometry" />
        </mxCell>
        <mxCell id="NFq08yg4SE_zjbonH55o-36" value="" style="rounded=0;whiteSpace=wrap;html=1;" vertex="1" parent="1">
          <mxGeometry x="250" y="600" width="40" height="65" as="geometry" />
        </mxCell>
        <mxCell id="NFq08yg4SE_zjbonH55o-37" value="" style="endArrow=none;html=1;rounded=0;entryX=0.5;entryY=1;entryDx=0;entryDy=0;exitX=0.5;exitY=0;exitDx=0;exitDy=0;" edge="1" parent="1" source="NFq08yg4SE_zjbonH55o-30" target="NFq08yg4SE_zjbonH55o-26">
          <mxGeometry width="50" height="50" relative="1" as="geometry">
            <mxPoint x="570" y="410" as="sourcePoint" />
            <mxPoint x="620" y="360" as="targetPoint" />
          </mxGeometry>
        </mxCell>
        <mxCell id="NFq08yg4SE_zjbonH55o-38" value="" style="endArrow=none;html=1;rounded=0;entryX=0.781;entryY=0.894;entryDx=0;entryDy=0;entryPerimeter=0;exitX=0.5;exitY=0;exitDx=0;exitDy=0;" edge="1" parent="1" source="NFq08yg4SE_zjbonH55o-31" target="NFq08yg4SE_zjbonH55o-26">
          <mxGeometry width="50" height="50" relative="1" as="geometry">
            <mxPoint x="570" y="410" as="sourcePoint" />
            <mxPoint x="620" y="360" as="targetPoint" />
          </mxGeometry>
        </mxCell>
        <mxCell id="NFq08yg4SE_zjbonH55o-39" value="" style="endArrow=none;html=1;rounded=0;entryX=0.5;entryY=1;entryDx=0;entryDy=0;exitX=0.5;exitY=0;exitDx=0;exitDy=0;" edge="1" parent="1" source="NFq08yg4SE_zjbonH55o-24" target="NFq08yg4SE_zjbonH55o-8">
          <mxGeometry width="50" height="50" relative="1" as="geometry">
            <mxPoint x="710" y="590" as="sourcePoint" />
            <mxPoint x="136.57148088727678" y="470" as="targetPoint" />
            <Array as="points" />
          </mxGeometry>
        </mxCell>
      </root>
    </mxGraphModel>
  </diagram>
</mxfile>
